<?xml version="1.0" encoding="UTF-8" standalone="no"?>
<!-- Generator: Adobe Illustrator 24.0.2, SVG Export Plug-In . SVG Version: 6.00 Build 0)  -->

<svg
   version="1.1"
   id="Calque_1"
   x="0px"
   y="0px"
   viewBox="0 0 250.00939 250.0094"
   xml:space="preserve"
   sodipodi:docname="Paris transit icons - Aéroport.svg"
   width="250.00938"
   height="250.0094"
   inkscape:version="1.2.1 (9c6d41e410, 2022-07-14)"
   xmlns:inkscape="http://www.inkscape.org/namespaces/inkscape"
   xmlns:sodipodi="http://sodipodi.sourceforge.net/DTD/sodipodi-0.dtd"
   xmlns="http://www.w3.org/2000/svg"
   xmlns:svg="http://www.w3.org/2000/svg"><defs
   id="defs23" /><sodipodi:namedview
   id="namedview21"
   pagecolor="#ffffff"
   bordercolor="#666666"
   borderopacity="1.0"
   inkscape:showpageshadow="2"
   inkscape:pageopacity="0.0"
   inkscape:pagecheckerboard="0"
   inkscape:deskcolor="#d1d1d1"
   showgrid="false"
   inkscape:zoom="2.4583333"
   inkscape:cx="64.067797"
   inkscape:cy="126.1017"
   inkscape:window-width="1680"
   inkscape:window-height="979"
   inkscape:window-x="-8"
   inkscape:window-y="-8"
   inkscape:window-maximized="1"
   inkscape:current-layer="Calque_1" />
<style
   type="text/css"
   id="style2">
	.st0{fill:#FFFFFF;stroke:#65B5E6;stroke-width:0.9291;stroke-miterlimit:10;}
	.st1{fill:#65B5E6;}
	.st2{fill:none;stroke:#65B5E6;stroke-width:0.9787;stroke-linecap:round;stroke-miterlimit:10;}
	.st3{fill:none;stroke:#25303B;stroke-width:0.9787;stroke-linecap:round;stroke-miterlimit:10;}
	.st4{fill:none;stroke:#65B5E6;stroke-width:0.9787;stroke-miterlimit:10;}
	.st5{fill:none;stroke:#65B5E6;stroke-width:2;stroke-linecap:round;stroke-miterlimit:10;}
	.st6{fill:none;stroke:#65B5E6;stroke-width:2;stroke-miterlimit:10;}
	.st7{fill:none;stroke:#25303B;stroke-width:2;stroke-linecap:round;stroke-miterlimit:10;}
	.st8{fill:none;stroke:#FFFFFF;stroke-width:0.6954;stroke-miterlimit:10;}
	.st9{fill:none;stroke:#FFFFFF;stroke-width:0.6954;stroke-linecap:round;stroke-miterlimit:10;}
	.st10{fill:#65B5E6;stroke:#FFFFFF;stroke-width:0.6954;stroke-miterlimit:10;}
	.st11{fill:#FFFFFF;}
	.st12{fill:none;stroke:#65B5E6;stroke-miterlimit:10;}
	.st13{fill:none;stroke:#25303B;stroke-linecap:round;stroke-miterlimit:10;}
	.st14{fill:#FFFFFF;stroke:#65B5E6;stroke-miterlimit:10;}
	.st15{fill:#25303B;}
	.st16{fill:none;stroke:#FFFFFF;stroke-miterlimit:10;}
	.st17{fill:none;stroke:#FFFFFF;stroke-width:0.9787;stroke-miterlimit:10;}
	.st18{fill:#FFFFFF;stroke:#65B5E6;stroke-width:0.9787;stroke-miterlimit:10;}
	.st19{fill:#FFFFFF;stroke:#25303B;stroke-width:0.9787;stroke-miterlimit:10;}
	.st20{fill-rule:evenodd;clip-rule:evenodd;fill:#65B5E6;}
	.st21{fill-rule:evenodd;clip-rule:evenodd;fill:#25303B;}
	.st22{fill:none;stroke:#25303B;stroke-width:2;stroke-linecap:round;stroke-linejoin:round;stroke-miterlimit:10;}
	.st23{fill:none;stroke:#65B5E6;stroke-width:2;stroke-linecap:round;stroke-linejoin:round;stroke-miterlimit:10;}
	.st24{fill:none;stroke:#25303B;stroke-width:0.9787;stroke-linecap:round;stroke-linejoin:round;stroke-miterlimit:10;}
	.st25{fill:none;stroke:#65B5E6;stroke-width:0.9787;stroke-linecap:round;stroke-linejoin:round;stroke-miterlimit:10;}
	.st26{fill:none;stroke:#25303B;stroke-width:0.8192;stroke-linecap:round;stroke-linejoin:round;stroke-miterlimit:10;}
	.st27{fill:none;stroke:#FFFFFF;stroke-width:0.734;stroke-linecap:round;stroke-linejoin:round;stroke-miterlimit:10;}
	.st28{fill:#FFFFFF;stroke:#65B5E6;stroke-linecap:round;stroke-miterlimit:10;}
	.st29{fill:#8C5E2B;}
	.st30{fill:none;stroke:#25303B;stroke-linecap:round;stroke-linejoin:round;stroke-miterlimit:10;}
	.st31{fill:#020203;}
	.st32{fill:none;stroke:#25303B;stroke-width:0.75;stroke-linecap:round;stroke-linejoin:round;stroke-miterlimit:10;}
	.st33{fill:none;stroke:#25303B;stroke-width:0.5;stroke-linecap:round;stroke-linejoin:round;stroke-miterlimit:10;}
	.st34{fill:none;stroke:#25303B;stroke-width:0.7745;stroke-linecap:round;stroke-linejoin:round;stroke-miterlimit:10;}
	.st35{fill:none;stroke:#65B5E6;stroke-width:0.7745;stroke-linecap:round;stroke-linejoin:round;stroke-miterlimit:10;}
	.st36{fill:none;stroke:#25303B;stroke-width:0.4893;stroke-linecap:round;stroke-linejoin:round;stroke-miterlimit:10;}
	.st37{fill:none;stroke:#65B5E6;stroke-linecap:round;stroke-linejoin:round;stroke-miterlimit:10;}
	.st38{fill:none;stroke:#FFFFFF;stroke-width:0.8;stroke-linecap:round;stroke-linejoin:round;stroke-miterlimit:10;}
	.st39{fill:none;stroke:#26303B;stroke-width:0.9787;stroke-miterlimit:10;}
	.st40{fill:none;stroke:#020203;stroke-miterlimit:10;}
	.st41{fill:#FFFFFF;stroke:#020203;stroke-miterlimit:10;}
	.st42{stroke:#020203;stroke-width:0.5;stroke-linecap:round;stroke-linejoin:round;stroke-miterlimit:10;}
	.st43{fill:#FFFFFF;stroke:#25303B;stroke-width:2;stroke-miterlimit:10;}
	.st44{fill:none;stroke:#25303B;stroke-width:2;stroke-miterlimit:10;}
	.st45{fill:none;stroke:#65B5E6;stroke-width:0.9289;stroke-linecap:round;stroke-linejoin:round;stroke-miterlimit:10;}
	.st46{fill:#FFFFFF;stroke:#25303B;stroke-width:0.9289;stroke-miterlimit:10;}
	.st47{fill:none;stroke:#25303B;stroke-width:0.9289;stroke-miterlimit:10;}
	.st48{fill:none;stroke:#25303B;stroke-width:0.9787;stroke-miterlimit:10;}
	.st49{fill:none;stroke:#FFFFFF;stroke-width:0.7768;stroke-linecap:round;stroke-linejoin:round;stroke-miterlimit:10;}
	.st50{fill:#65B5E6;stroke:#FFFFFF;stroke-width:0.7768;stroke-miterlimit:10;}
	.st51{fill:none;stroke:#FFFFFF;stroke-width:0.7768;stroke-miterlimit:10;}
	.st52{fill:none;stroke:#FFFFFF;stroke-width:2;stroke-linecap:round;stroke-miterlimit:10;}
	.st53{fill:none;stroke:#FFFFFF;stroke-width:0.9787;stroke-linecap:round;stroke-miterlimit:10;}
	.st54{fill:#FFFFFF;stroke:#65B5E6;stroke-width:2;stroke-miterlimit:10;}
	.st55{fill:none;stroke:#25303B;stroke-width:0.4893;stroke-miterlimit:10;}
	.st56{fill:#65B5E6;stroke:#FFFFFF;stroke-width:0.9787;stroke-miterlimit:10;}
	.st57{fill:none;stroke:#FFFFFF;stroke-width:2;stroke-miterlimit:10;}
	.st58{fill:none;stroke:#25303B;stroke-width:1.5212;stroke-linecap:round;stroke-miterlimit:10;}
	.st59{fill:#FFFFFF;stroke:#65B5E6;stroke-width:0.9806;stroke-miterlimit:10;}
	.st60{fill:none;stroke:#65B5E6;stroke-linecap:round;stroke-miterlimit:10;}
	.st61{fill:#FFFFFF;stroke:#25303B;stroke-width:2;stroke-linecap:round;stroke-miterlimit:10;}
	.st62{fill:none;stroke:#65B5E6;stroke-width:0.462;stroke-miterlimit:10;}
	.st63{fill:#FFFFFF;stroke:#25303B;stroke-width:0.462;stroke-linecap:round;stroke-miterlimit:10;}
	.st64{fill:none;stroke:#25303B;stroke-width:0.462;stroke-linecap:round;stroke-miterlimit:10;}
	.st65{fill:#65B5E6;stroke:#FFFFFF;stroke-width:0.5367;stroke-miterlimit:10;}
	.st66{fill:none;stroke:#25303B;stroke-width:0.3188;stroke-linecap:round;stroke-linejoin:round;stroke-miterlimit:10;}
	.st67{fill:none;stroke:#25303B;stroke-width:0.2125;stroke-linecap:round;stroke-linejoin:round;stroke-miterlimit:10;}
	.st68{fill:none;stroke:#25303B;stroke-width:0.8501;stroke-linecap:round;stroke-linejoin:round;stroke-miterlimit:10;}
	.st69{fill:none;stroke:#65B5E6;stroke-width:0.8501;stroke-linecap:round;stroke-linejoin:round;stroke-miterlimit:10;}
	.st70{fill:none;stroke:#65B5E6;stroke-width:0.425;stroke-miterlimit:10;}
	.st71{fill:none;stroke:#FFFFFF;stroke-width:0.8;stroke-miterlimit:10;}
	.st72{fill:#67B3E4;}
	.st73{fill-rule:evenodd;clip-rule:evenodd;fill:#FFFFFF;}
	.st74{fill:#6DAFE1;}
	.st75{fill:#FFFFFF;stroke:#6DAFE1;stroke-width:1.2993;stroke-miterlimit:10;}
	.st76{fill:none;stroke:#25303B;stroke-width:3;stroke-linecap:round;stroke-miterlimit:10;}
</style>




<g
   id="g1631"
   transform="matrix(5.4533332,0,0,5.6022221,-0.14779668,0.66802288)"><rect
     style="display:inline;fill:#ffffff;stroke-width:8.80046"
     id="rect1628"
     width="45.762714"
     height="41.491524"
     x="0.10169491"
     y="1.4237288" /></g><g
   id="g1612"
   transform="scale(10.460644,10.730017)"><g
     id="g6"
     transform="translate(0,-0.4)">
	<path
   class="st15"
   d="m 2.6,15.8 3.3,-2.9 c 0.3,-0.3 0.3,-0.8 0,-1.1 L 2.6,8.9 C 2.4,8.8 2.2,8.9 2.2,9.1 v 6.5 c 0,0.2 0.2,0.3 0.4,0.2 z"
   id="path4" />
</g><g
     id="g10"
     transform="translate(0,-0.4)">
	<path
   class="st15"
   d="M 21.3,8.6 C 21.9,8 22.2,7.3 22.2,6.8 22.2,6.5 22.1,6.2 21.9,6 21.7,5.8 21.4,5.7 21.1,5.7 20.5,5.7 19.8,6 19.3,6.6 18.4,7.4 17.5,8.4 16.6,9.3 L 9.6,7.9 C 9.4,7.9 9.2,8 9.1,8.2 L 8.9,8.5 C 8.8,8.8 8.9,9 9.1,9.1 l 5.1,2.5 -3.1,3.6 C 10.4,15 9.3,14.7 9.3,15.6 c 0,0.2 0,0.3 0.2,0.5 l 2.2,2.2 c 0.2,0.1 0.4,0.2 0.5,0.2 0.9,0 0.6,-1.1 0.4,-1.8 l 3.6,-3.1 2.5,5.1 c 0.1,0.2 0.4,0.3 0.6,0.2 l 0.4,-0.2 c 0.2,-0.1 0.3,-0.3 0.2,-0.5 l -1.4,-7 c 1,-0.8 1.9,-1.7 2.8,-2.6 z M 21,6.2 c 0.2,0 0.4,0.1 0.5,0.2 0.1,0.1 0.2,0.3 0.2,0.5 0,0.3 -0.8,1.3 -1.1,1.6 L 19.4,7.3 C 19.7,7 20.7,6.2 21,6.2 Z"
   id="path8" />
</g><g
     id="g14"
     transform="translate(0,-0.4)">
	<path
   class="st15"
   d="M 23.2,2 H 0.8 C 0.4,2 0,1.6 0,1.2 0,0.8 0.4,0.4 0.8,0.4 h 22.3 c 0.5,0 0.8,0.4 0.8,0.8 0,0.4 -0.3,0.8 -0.7,0.8 z"
   id="path12" />
</g><g
     id="g18"
     transform="translate(0,-0.4)"
     style="display:inline">
	<path
   class="st15"
   d="M 23.2,23.7 H 0.8 C 0.3,23.7 0,23.3 0,22.9 0,22.5 0.4,22 0.8,22 h 22.3 c 0.5,0 0.8,0.4 0.8,0.8 0,0.4 -0.3,0.9 -0.7,0.9 z"
   id="path16" />
</g></g></svg>
