<svg version="1.1" id="Layer_1" xmlns="http://www.w3.org/2000/svg" xmlns:xlink="http://www.w3.org/1999/xlink" x="0px" y="0px"
	 width="100%" viewBox="0 0 650 325" enable-background="new 0 0 650 325" xml:space="preserve">
<path fill="#FBFBFB" opacity="1.000000" stroke="none" 
	d="
M445.000000,326.000000 
	C296.666687,326.000000 148.833405,326.000000 1.000079,326.000000 
	C1.000053,217.666733 1.000053,109.333458 1.000026,1.000138 
	C217.666550,1.000092 434.333099,1.000092 650.999756,1.000046 
	C650.999817,109.333191 650.999817,217.666382 650.999878,325.999786 
	C582.500000,326.000000 514.000000,326.000000 445.000000,326.000000 
M257.872345,180.695267 
	C260.846191,166.019928 263.979126,151.374527 266.749329,136.660843 
	C269.543823,121.817871 271.939606,124.087158 255.710159,123.828407 
	C252.812653,123.782211 251.494614,125.093269 250.985306,127.807739 
	C250.064880,132.713425 249.085419,137.612045 247.963486,142.475067 
	C245.722290,152.189453 243.752136,161.991425 240.927353,171.537460 
	C239.002899,178.040878 235.034607,183.558670 228.311600,186.201202 
	C224.005249,187.893829 219.384277,188.690643 215.444839,185.617767 
	C211.535751,182.568573 212.625290,178.037994 213.410034,173.987137 
	C215.877884,161.247818 218.550644,148.548233 221.134491,135.831329 
	C223.608917,123.652931 223.603531,123.786179 211.184280,123.773857 
	C207.258072,123.769958 205.610794,125.145439 204.862839,129.003464 
	C201.664642,145.500275 198.088654,161.923782 194.879013,178.418503 
	C194.136353,182.235016 192.401840,184.420471 188.586868,184.984909 
	C185.951797,185.374786 183.301422,185.711960 180.701035,186.272751 
	C177.357864,186.993759 176.488754,185.285431 176.667282,182.451370 
	C176.750900,181.124084 176.920517,179.791077 177.185791,178.488052 
	C182.596710,151.910538 187.997208,125.330826 193.470490,98.766121 
	C195.296097,89.905403 195.385803,89.923882 186.143112,89.924583 
	C177.609634,89.925232 177.668015,89.936951 175.976227,98.366104 
	C172.538315,115.495140 168.992737,132.602585 165.563995,149.733429 
	C162.886856,163.109039 159.986771,176.453217 157.826553,189.914200 
	C156.514786,198.088104 161.517380,203.031357 169.762619,202.681061 
	C174.079025,202.497665 178.369385,201.759247 182.679474,201.356644 
	C190.765961,200.601318 198.836502,197.457657 206.934952,201.912292 
	C208.955460,203.023697 211.813843,202.791397 214.295197,202.853409 
	C223.389999,203.080688 231.568085,200.476547 238.400146,194.062927 
	C241.246704,201.320435 245.156891,203.493332 254.818314,202.614410 
	C263.596130,201.815842 272.329681,200.499039 281.065918,199.289322 
	C284.881775,198.760941 288.279419,198.804443 292.100800,200.496063 
	C296.540588,202.461441 301.690948,203.471619 306.579773,203.656555 
	C324.616119,204.338821 338.985992,193.858063 345.884979,175.435120 
	C350.345428,163.524048 352.095367,151.319977 348.549072,138.143997 
	C350.723206,138.143997 352.330505,138.143997 353.937836,138.143997 
	C363.937592,138.143997 373.938019,138.216873 383.936920,138.124649 
	C395.227386,138.020523 393.806763,139.879929 396.527710,127.744179 
	C397.434906,123.697922 396.519104,122.347710 392.333954,122.344238 
	C367.672882,122.323807 343.011597,121.981552 318.351257,122.052635 
	C305.052826,122.090965 294.536621,128.081268 287.283173,139.116638 
	C279.437653,151.052734 276.294464,164.387146 277.711456,178.610077 
	C278.098389,182.493866 276.683594,184.280777 273.210358,184.948456 
	C269.777130,185.608459 266.314697,186.115555 262.878906,186.763260 
	C258.562164,187.577057 256.873444,185.864914 257.872345,180.695267 
M97.980759,208.329971 
	C94.401176,224.559540 92.953041,225.925232 79.678230,225.929916 
	C67.730995,225.934143 69.935066,224.491409 66.980896,236.758469 
	C66.135597,240.268570 67.062424,241.746658 70.747826,241.648712 
	C75.573837,241.520447 80.406067,241.646393 85.235329,241.615753 
	C101.417267,241.513077 110.595261,234.070267 113.952179,218.137451 
	C116.729012,204.957870 119.329140,191.741089 122.019073,178.543137 
	C124.698265,165.397873 127.391777,152.255524 130.123505,138.894287 
	C132.733490,138.894287 134.879501,138.916656 137.024902,138.890610 
	C149.404449,138.740326 147.563614,140.637360 150.491959,127.707123 
	C151.377167,123.798470 149.886047,122.951065 146.502808,123.039368 
	C142.368790,123.147263 138.229813,123.065056 134.095520,123.065056 
	C134.209656,105.597572 143.323456,97.536339 157.834641,101.602226 
	C166.477127,104.023766 166.476868,104.023712 168.156281,95.002159 
	C168.217178,94.675011 168.246429,94.331306 168.370712,94.028244 
	C169.851181,90.418587 168.091721,88.457382 164.778580,88.013107 
	C157.921555,87.093628 150.994034,85.769379 144.138290,85.983200 
	C133.140747,86.326210 125.431053,92.543861 121.112396,102.467484 
	C118.942955,107.452522 117.330124,112.817596 116.431587,118.172882 
	C115.752296,122.221443 114.283844,123.313477 110.374298,123.153946 
	C103.324265,122.866264 103.313438,123.096672 101.840073,130.376953 
	C101.510361,132.006149 101.235573,133.647614 100.862869,135.266708 
	C100.254303,137.910446 101.321556,138.992996 103.964172,138.907639 
	C106.548080,138.824188 109.136787,138.889496 112.094734,138.889496 
	C107.332306,162.230820 102.714500,184.863297 97.980759,208.329971 
M398.118317,182.672943 
	C397.660736,182.105286 397.215485,181.056442 396.743652,181.044342 
	C391.983673,180.922287 387.219330,180.969971 382.457886,180.969971 
	C382.457886,183.654266 382.457886,185.727478 382.457886,187.934219 
	C385.166321,188.104584 387.568298,188.255676 389.738861,188.392212 
	C391.148376,192.846497 389.496521,194.778915 385.592682,195.503952 
	C380.618683,196.427734 376.034027,194.568192 373.631500,190.351898 
	C370.827332,185.430756 371.566193,178.961777 375.376678,175.073029 
	C378.748291,171.632141 383.503418,170.984268 388.251923,173.360077 
	C389.520721,173.994873 390.736084,174.736526 392.132874,175.516785 
	C393.810730,173.284775 395.248596,171.372009 396.654938,169.501205 
	C388.835968,162.564743 377.670746,162.280670 370.295441,168.513931 
	C363.075867,174.615585 361.238617,186.111954 366.144897,194.485870 
	C370.929626,202.652328 381.544098,205.819901 391.184723,201.896713 
	C395.749023,200.039307 399.394806,197.630890 398.222534,191.618576 
	C397.721954,189.051331 398.137482,186.305466 398.118317,182.672943 
M486.337036,173.518005 
	C477.745026,176.983475 474.161041,186.452087 478.037476,195.444748 
	C481.473633,203.416092 488.263062,205.123108 497.595184,200.497131 
	C499.554779,204.963104 502.956848,202.269836 506.038208,202.633255 
	C506.038208,189.927353 506.042328,177.654678 506.026245,165.382019 
	C506.025421,164.755737 505.851349,164.129684 505.741760,163.395172 
	C503.142548,163.395172 500.762421,163.395172 497.882629,163.395172 
	C497.882629,167.708527 497.882629,171.736862 497.882629,175.028687 
	C494.012970,174.400711 490.556580,173.839813 486.337036,173.518005 
M443.871002,182.196793 
	C440.767426,173.043839 430.203979,170.235092 420.972961,176.295792 
	C421.552185,178.073318 422.150177,179.908524 422.731995,181.693985 
	C433.395630,179.655991 435.636230,180.371933 435.523102,185.040527 
	C432.879639,185.040527 430.237671,184.845383 427.635986,185.085724 
	C423.609680,185.457642 419.589539,186.897079 419.101501,191.303024 
	C418.758087,194.403183 419.368011,199.176437 421.384277,200.590607 
	C424.170776,202.544983 428.669434,202.165955 432.459778,202.514954 
	C433.581787,202.618271 434.855255,201.348312 435.942078,201.507614 
	C438.468750,201.877991 440.924042,202.735519 443.974823,203.546158 
	C443.974823,195.971283 443.974823,189.519882 443.871002,182.196793 
M461.439270,180.898193 
	C465.549225,181.350571 465.773224,184.446014 465.820496,187.523529 
	C465.898407,192.601486 465.841614,197.681519 465.841614,202.604340 
	C468.935730,202.604340 471.194580,202.604340 473.879089,202.604340 
	C473.879089,196.683640 473.883972,191.059128 473.875061,185.434647 
	C473.873230,184.271042 473.934875,183.091110 473.771759,181.946564 
	C472.621185,173.873825 465.623383,170.684113 458.643890,175.019760 
	C457.967896,175.439682 457.296722,175.867371 456.615540,176.296356 
	C454.789246,173.172592 453.786896,172.964523 448.491974,174.351013 
	C448.491974,183.802490 448.491974,193.212906 448.491974,202.662567 
	C451.113647,202.662567 453.377045,202.662567 456.143616,202.662567 
	C456.143616,197.477737 456.070068,192.526154 456.170532,187.578110 
	C456.233154,184.492752 456.605835,181.444290 461.439270,180.898193 
M547.720276,187.526001 
	C551.816895,189.691238 555.913513,191.856491 560.575073,194.320312 
	C555.297241,198.629608 551.566040,194.428940 547.535950,193.491684 
	C546.478210,195.228683 545.541504,196.766876 544.524292,198.437286 
	C548.977661,202.425705 554.005371,203.673431 559.505310,202.727875 
	C565.151855,201.757080 568.951172,196.113815 566.611877,191.275040 
	C565.339111,188.642288 562.019104,186.875443 559.383484,185.066101 
	C557.406677,183.709045 555.048645,182.907303 552.860352,181.858322 
	C553.120667,181.027634 553.380981,180.196960 553.641296,179.366272 
	C556.912476,179.962631 560.183594,180.558990 563.848267,181.227081 
	C564.533081,179.915756 565.422791,178.211929 566.284668,176.561447 
	C560.262939,172.181259 552.971558,171.584839 548.940796,175.182022 
	C545.190002,178.529312 544.895874,182.589798 547.720276,187.526001 
M583.915527,173.232422 
	C582.322449,173.132324 580.729370,173.032242 579.089478,172.929199 
	C578.902588,170.448593 578.744873,168.355637 578.585632,166.242920 
	C575.871643,166.242920 573.475647,166.242920 572.563049,166.242920 
	C570.700012,169.360306 568.966553,171.446701 568.177429,173.843948 
	C567.568115,175.695038 567.637512,179.537918 568.274780,179.738998 
	C571.933105,180.893265 570.744446,183.615448 570.842651,185.866135 
	C571.002075,189.521088 570.687317,193.215607 571.088074,196.836411 
	C571.600708,201.467285 575.397461,203.543198 580.808594,202.912292 
	C585.870300,202.322113 585.867676,199.181824 585.381165,197.047256 
	C582.493591,195.058884 579.450867,194.069412 579.144104,192.533569 
	C578.390869,188.761688 578.897766,184.738159 578.897766,180.856750 
	C581.449646,180.537460 583.358276,180.298645 585.771667,179.996674 
	C585.379089,177.535294 585.051147,175.479385 583.915527,173.232422 
M418.983002,181.444046 
	C418.983002,178.706955 418.983002,175.969864 418.983002,172.216232 
	C415.815735,173.771805 413.413788,174.951492 411.008820,176.132660 
	C409.108490,171.844025 405.616699,174.052673 402.457794,173.853973 
	C402.457794,183.589676 402.457794,192.997772 402.457794,202.658447 
	C405.126923,202.658447 407.526978,202.658447 410.361084,202.658447 
	C410.361084,198.608902 410.172607,194.785660 410.407990,190.988693 
	C410.714081,186.051086 412.631317,182.248993 418.983002,181.444046 
M522.219543,164.348114 
	C520.274780,164.348114 518.330017,164.348114 516.154541,164.348114 
	C516.154541,177.225403 516.154541,189.589462 516.154541,202.159363 
	C518.803711,202.159363 521.222046,202.159363 523.931213,202.159363 
	C523.931213,189.818390 523.938904,177.733109 523.896606,165.647995 
	C523.895264,165.259415 523.382019,164.872620 522.219543,164.348114 
M528.076660,187.022629 
	C532.345825,187.022629 536.614929,187.022629 540.714233,187.022629 
	C540.714233,184.167038 540.714233,181.944290 540.714233,179.702286 
	C535.920532,179.702286 531.510925,179.702286 526.568665,179.702286 
	C526.813293,182.293488 527.025696,184.543945 528.076660,187.022629 
M531.702271,172.016235 
	C534.766602,172.016235 537.830933,172.016235 540.748108,172.016235 
	C540.748108,169.097733 540.748108,166.876282 540.748108,164.480713 
	C536.020996,164.480713 531.639771,164.480713 527.035767,164.480713 
	C527.035767,167.049454 527.035767,169.412704 527.035767,172.016418 
	C528.498596,172.016418 529.641785,172.016418 531.702271,172.016235 
M537.160767,202.417816 
	C543.891785,202.538406 539.899536,197.945572 540.790405,195.296143 
	C535.781616,195.296143 531.271729,195.296143 526.728821,195.296143 
	C526.728821,197.737167 526.728821,199.813263 526.728821,202.417725 
	C530.072876,202.417725 533.169861,202.417725 537.160767,202.417816 
z"/>
<path fill="#AFCB1D" opacity="1.000000" stroke="none" 
	d="
M257.801697,181.138123 
	C256.873444,185.864914 258.562164,187.577057 262.878906,186.763260 
	C266.314697,186.115555 269.777130,185.608459 273.210358,184.948456 
	C276.683594,184.280777 278.098389,182.493866 277.711456,178.610077 
	C276.294464,164.387146 279.437653,151.052734 287.283173,139.116638 
	C294.536621,128.081268 305.052826,122.090965 318.351257,122.052635 
	C343.011597,121.981552 367.672882,122.323807 392.333954,122.344238 
	C396.519104,122.347710 397.434906,123.697922 396.527710,127.744179 
	C393.806763,139.879929 395.227386,138.020523 383.936920,138.124649 
	C373.938019,138.216873 363.937592,138.143997 353.937836,138.143997 
	C352.330505,138.143997 350.723206,138.143997 348.549072,138.143997 
	C352.095367,151.319977 350.345428,163.524048 345.884979,175.435120 
	C338.985992,193.858063 324.616119,204.338821 306.579773,203.656555 
	C301.690948,203.471619 296.540588,202.461441 292.100800,200.496063 
	C288.279419,198.804443 284.881775,198.760941 281.065918,199.289322 
	C272.329681,200.499039 263.596130,201.815842 254.818314,202.614410 
	C245.156891,203.493332 241.246704,201.320435 238.400146,194.062927 
	C231.568085,200.476547 223.389999,203.080688 214.295197,202.853409 
	C211.813843,202.791397 208.955460,203.023697 206.934952,201.912292 
	C198.836502,197.457657 190.765961,200.601318 182.679474,201.356644 
	C178.369385,201.759247 174.079025,202.497665 169.762619,202.681061 
	C161.517380,203.031357 156.514786,198.088104 157.826553,189.914200 
	C159.986771,176.453217 162.886856,163.109039 165.563995,149.733429 
	C168.992737,132.602585 172.538315,115.495140 175.976227,98.366104 
	C177.668015,89.936951 177.609634,89.925232 186.143112,89.924583 
	C195.385803,89.923882 195.296097,89.905403 193.470490,98.766121 
	C187.997208,125.330826 182.596710,151.910538 177.185791,178.488052 
	C176.920517,179.791077 176.750900,181.124084 176.667282,182.451370 
	C176.488754,185.285431 177.357864,186.993759 180.701035,186.272751 
	C183.301422,185.711960 185.951797,185.374786 188.586868,184.984909 
	C192.401840,184.420471 194.136353,182.235016 194.879013,178.418503 
	C198.088654,161.923782 201.664642,145.500275 204.862839,129.003464 
	C205.610794,125.145439 207.258072,123.769958 211.184280,123.773857 
	C223.603531,123.786179 223.608917,123.652931 221.134491,135.831329 
	C218.550644,148.548233 215.877884,161.247818 213.410034,173.987137 
	C212.625290,178.037994 211.535751,182.568573 215.444839,185.617767 
	C219.384277,188.690643 224.005249,187.893829 228.311600,186.201202 
	C235.034607,183.558670 239.002899,178.040878 240.927353,171.537460 
	C243.752136,161.991425 245.722290,152.189453 247.963486,142.475067 
	C249.085419,137.612045 250.064880,132.713425 250.985306,127.807739 
	C251.494614,125.093269 252.812653,123.782211 255.710159,123.828407 
	C271.939606,124.087158 269.543823,121.817871 266.749329,136.660843 
	C263.979126,151.374527 260.846191,166.019928 257.801697,181.138123 
M323.435181,179.875137 
	C329.386047,171.926437 331.273743,162.642685 331.586884,153.070602 
	C331.878448,144.158585 327.328400,139.244858 319.642670,138.880920 
	C311.327911,138.487198 305.035950,142.280594 302.079742,149.588089 
	C299.197388,156.713058 296.949005,164.448685 296.357971,172.066391 
	C295.382751,184.635101 305.132843,190.573715 316.611786,185.138382 
	C318.950012,184.031219 320.863647,182.027283 323.435181,179.875137 
z"/>
<path fill="#AFCB1E" opacity="1.000000" stroke="none" 
	d="
M98.038727,207.912872 
	C102.714500,184.863297 107.332306,162.230820 112.094734,138.889496 
	C109.136787,138.889496 106.548080,138.824188 103.964172,138.907639 
	C101.321556,138.992996 100.254303,137.910446 100.862869,135.266708 
	C101.235573,133.647614 101.510361,132.006149 101.840073,130.376953 
	C103.313438,123.096672 103.324265,122.866264 110.374298,123.153946 
	C114.283844,123.313477 115.752296,122.221443 116.431587,118.172882 
	C117.330124,112.817596 118.942955,107.452522 121.112396,102.467484 
	C125.431053,92.543861 133.140747,86.326210 144.138290,85.983200 
	C150.994034,85.769379 157.921555,87.093628 164.778580,88.013107 
	C168.091721,88.457382 169.851181,90.418587 168.370712,94.028244 
	C168.246429,94.331306 168.217178,94.675011 168.156281,95.002159 
	C166.476868,104.023712 166.477127,104.023766 157.834641,101.602226 
	C143.323456,97.536339 134.209656,105.597572 134.095520,123.065056 
	C138.229813,123.065056 142.368790,123.147263 146.502808,123.039368 
	C149.886047,122.951065 151.377167,123.798470 150.491959,127.707123 
	C147.563614,140.637360 149.404449,138.740326 137.024902,138.890610 
	C134.879501,138.916656 132.733490,138.894287 130.123505,138.894287 
	C127.391777,152.255524 124.698265,165.397873 122.019073,178.543137 
	C119.329140,191.741089 116.729012,204.957870 113.952179,218.137451 
	C110.595261,234.070267 101.417267,241.513077 85.235329,241.615753 
	C80.406067,241.646393 75.573837,241.520447 70.747826,241.648712 
	C67.062424,241.746658 66.135597,240.268570 66.980896,236.758469 
	C69.935066,224.491409 67.730995,225.934143 79.678230,225.929916 
	C92.953041,225.925232 94.401176,224.559540 98.038727,207.912872 
z"/>
<path fill="#0773AE" opacity="1.000000" stroke="none" 
	d="
M398.127502,183.156860 
	C398.137482,186.305466 397.721954,189.051331 398.222534,191.618576 
	C399.394806,197.630890 395.749023,200.039307 391.184723,201.896713 
	C381.544098,205.819901 370.929626,202.652328 366.144897,194.485870 
	C361.238617,186.111954 363.075867,174.615585 370.295441,168.513931 
	C377.670746,162.280670 388.835968,162.564743 396.654938,169.501205 
	C395.248596,171.372009 393.810730,173.284775 392.132874,175.516785 
	C390.736084,174.736526 389.520721,173.994873 388.251923,173.360077 
	C383.503418,170.984268 378.748291,171.632141 375.376678,175.073029 
	C371.566193,178.961777 370.827332,185.430756 373.631500,190.351898 
	C376.034027,194.568192 380.618683,196.427734 385.592682,195.503952 
	C389.496521,194.778915 391.148376,192.846497 389.738861,188.392212 
	C387.568298,188.255676 385.166321,188.104584 382.457886,187.934219 
	C382.457886,185.727478 382.457886,183.654266 382.457886,180.969971 
	C387.219330,180.969971 391.983673,180.922287 396.743652,181.044342 
	C397.215485,181.056442 397.660736,182.105286 398.127502,183.156860 
z"/>
<path fill="#0673AE" opacity="1.000000" stroke="none" 
	d="
M486.718628,173.398453 
	C490.556580,173.839813 494.012970,174.400711 497.882629,175.028687 
	C497.882629,171.736862 497.882629,167.708527 497.882629,163.395172 
	C500.762421,163.395172 503.142548,163.395172 505.741760,163.395172 
	C505.851349,164.129684 506.025421,164.755737 506.026245,165.382019 
	C506.042328,177.654678 506.038208,189.927353 506.038208,202.633255 
	C502.956848,202.269836 499.554779,204.963104 497.595184,200.497131 
	C488.263062,205.123108 481.473633,203.416092 478.037476,195.444748 
	C474.161041,186.452087 477.745026,176.983475 486.718628,173.398453 
M489.293945,180.697296 
	C488.187805,181.641891 486.808899,182.402832 486.026245,183.565231 
	C483.597260,187.172653 484.640137,193.040878 488.042084,195.101227 
	C491.164520,196.992325 494.686798,196.753784 496.218689,193.542633 
	C497.488800,190.880295 497.958221,186.981232 496.927338,184.359467 
	C496.168549,182.429779 492.415100,181.677643 489.293945,180.697296 
z"/>
<path fill="#0974AF" opacity="1.000000" stroke="none" 
	d="
M443.922913,182.632629 
	C443.974823,189.519882 443.974823,195.971283 443.974823,203.546158 
	C440.924042,202.735519 438.468750,201.877991 435.942078,201.507614 
	C434.855255,201.348312 433.581787,202.618271 432.459778,202.514954 
	C428.669434,202.165955 424.170776,202.544983 421.384277,200.590607 
	C419.368011,199.176437 418.758087,194.403183 419.101501,191.303024 
	C419.589539,186.897079 423.609680,185.457642 427.635986,185.085724 
	C430.237671,184.845383 432.879639,185.040527 435.523102,185.040527 
	C435.636230,180.371933 433.395630,179.655991 422.731995,181.693985 
	C422.150177,179.908524 421.552185,178.073318 420.972961,176.295792 
	C430.203979,170.235092 440.767426,173.043839 443.922913,182.632629 
M436.531525,193.145248 
	C435.154572,190.104034 431.055573,188.708359 428.350647,190.864960 
	C427.219391,191.766861 426.249542,194.682526 426.854095,195.619659 
	C428.879700,198.759689 431.932373,197.900604 434.625610,196.203995 
	C435.378296,195.729843 435.752441,194.654800 436.531525,193.145248 
z"/>
<path fill="#0974AF" opacity="1.000000" stroke="none" 
	d="
M461.024506,180.899902 
	C456.605835,181.444290 456.233154,184.492752 456.170532,187.578110 
	C456.070068,192.526154 456.143616,197.477737 456.143616,202.662567 
	C453.377045,202.662567 451.113647,202.662567 448.491974,202.662567 
	C448.491974,193.212906 448.491974,183.802490 448.491974,174.351013 
	C453.786896,172.964523 454.789246,173.172592 456.615540,176.296356 
	C457.296722,175.867371 457.967896,175.439682 458.643890,175.019760 
	C465.623383,170.684113 472.621185,173.873825 473.771759,181.946564 
	C473.934875,183.091110 473.873230,184.271042 473.875061,185.434647 
	C473.883972,191.059128 473.879089,196.683640 473.879089,202.604340 
	C471.194580,202.604340 468.935730,202.604340 465.841614,202.604340 
	C465.841614,197.681519 465.898407,192.601486 465.820496,187.523529 
	C465.773224,184.446014 465.549225,181.350571 461.024506,180.899902 
z"/>
<path fill="#0974AF" opacity="1.000000" stroke="none" 
	d="
M547.464478,187.230103 
	C544.895874,182.589798 545.190002,178.529312 548.940796,175.182022 
	C552.971558,171.584839 560.262939,172.181259 566.284668,176.561447 
	C565.422791,178.211929 564.533081,179.915756 563.848267,181.227081 
	C560.183594,180.558990 556.912476,179.962631 553.641296,179.366272 
	C553.380981,180.196960 553.120667,181.027634 552.860352,181.858322 
	C555.048645,182.907303 557.406677,183.709045 559.383484,185.066101 
	C562.019104,186.875443 565.339111,188.642288 566.611877,191.275040 
	C568.951172,196.113815 565.151855,201.757080 559.505310,202.727875 
	C554.005371,203.673431 548.977661,202.425705 544.524292,198.437286 
	C545.541504,196.766876 546.478210,195.228683 547.535950,193.491684 
	C551.566040,194.428940 555.297241,198.629608 560.575073,194.320312 
	C555.913513,191.856491 551.816895,189.691238 547.464478,187.230103 
z"/>
<path fill="#0773AE" opacity="1.000000" stroke="none" 
	d="
M584.319336,173.327942 
	C585.051147,175.479385 585.379089,177.535294 585.771667,179.996674 
	C583.358276,180.298645 581.449646,180.537460 578.897766,180.856750 
	C578.897766,184.738159 578.390869,188.761688 579.144104,192.533569 
	C579.450867,194.069412 582.493591,195.058884 585.381165,197.047256 
	C585.867676,199.181824 585.870300,202.322113 580.808594,202.912292 
	C575.397461,203.543198 571.600708,201.467285 571.088074,196.836411 
	C570.687317,193.215607 571.002075,189.521088 570.842651,185.866135 
	C570.744446,183.615448 571.933105,180.893265 568.274780,179.738998 
	C567.637512,179.537918 567.568115,175.695038 568.177429,173.843948 
	C568.966553,171.446701 570.700012,169.360306 572.563049,166.242920 
	C573.475647,166.242920 575.871643,166.242920 578.585632,166.242920 
	C578.744873,168.355637 578.902588,170.448593 579.089478,172.929199 
	C580.729370,173.032242 582.322449,173.132324 584.319336,173.327942 
z"/>
<path fill="#0B75AF" opacity="1.000000" stroke="none" 
	d="
M418.657166,181.658630 
	C412.631317,182.248993 410.714081,186.051086 410.407990,190.988693 
	C410.172607,194.785660 410.361084,198.608902 410.361084,202.658447 
	C407.526978,202.658447 405.126923,202.658447 402.457794,202.658447 
	C402.457794,192.997772 402.457794,183.589676 402.457794,173.853973 
	C405.616699,174.052673 409.108490,171.844025 411.008820,176.132660 
	C413.413788,174.951492 415.815735,173.771805 418.983002,172.216232 
	C418.983002,175.969864 418.983002,178.706955 418.657166,181.658630 
z"/>
<path fill="#0472AD" opacity="1.000000" stroke="none" 
	d="
M522.663452,164.416565 
	C523.382019,164.872620 523.895264,165.259415 523.896606,165.647995 
	C523.938904,177.733109 523.931213,189.818390 523.931213,202.159363 
	C521.222046,202.159363 518.803711,202.159363 516.154541,202.159363 
	C516.154541,189.589462 516.154541,177.225403 516.154541,164.348114 
	C518.330017,164.348114 520.274780,164.348114 522.663452,164.416565 
z"/>
<path fill="#1078B1" opacity="1.000000" stroke="none" 
	d="
M527.657410,186.908508 
	C527.025696,184.543945 526.813293,182.293488 526.568665,179.702286 
	C531.510925,179.702286 535.920532,179.702286 540.714233,179.702286 
	C540.714233,181.944290 540.714233,184.167038 540.714233,187.022629 
	C536.614929,187.022629 532.345825,187.022629 527.657410,186.908508 
z"/>
<path fill="#1078B1" opacity="1.000000" stroke="none" 
	d="
M531.243591,172.016327 
	C529.641785,172.016418 528.498596,172.016418 527.035767,172.016418 
	C527.035767,169.412704 527.035767,167.049454 527.035767,164.480713 
	C531.639771,164.480713 536.020996,164.480713 540.748108,164.480713 
	C540.748108,166.876282 540.748108,169.097733 540.748108,172.016235 
	C537.830933,172.016235 534.766602,172.016235 531.243591,172.016327 
z"/>
<path fill="#0471AD" opacity="1.000000" stroke="none" 
	d="
M536.713806,202.417770 
	C533.169861,202.417725 530.072876,202.417725 526.728821,202.417725 
	C526.728821,199.813263 526.728821,197.737167 526.728821,195.296143 
	C531.271729,195.296143 535.781616,195.296143 540.790405,195.296143 
	C539.899536,197.945572 543.891785,202.538406 536.713806,202.417770 
z"/>
<path fill="#FAFAF8" opacity="1.000000" stroke="none" 
	d="
M323.204102,180.155945 
	C320.863647,182.027283 318.950012,184.031219 316.611786,185.138382 
	C305.132843,190.573715 295.382751,184.635101 296.357971,172.066391 
	C296.949005,164.448685 299.197388,156.713058 302.079742,149.588089 
	C305.035950,142.280594 311.327911,138.487198 319.642670,138.880920 
	C327.328400,139.244858 331.878448,144.158585 331.586884,153.070602 
	C331.273743,162.642685 329.386047,171.926437 323.204102,180.155945 
z"/>
<path fill="#F4F7F9" opacity="1.000000" stroke="none" 
	d="
M489.645020,180.549042 
	C492.415100,181.677643 496.168549,182.429779 496.927338,184.359467 
	C497.958221,186.981232 497.488800,190.880295 496.218689,193.542633 
	C494.686798,196.753784 491.164520,196.992325 488.042084,195.101227 
	C484.640137,193.040878 483.597260,187.172653 486.026245,183.565231 
	C486.808899,182.402832 488.187805,181.641891 489.645020,180.549042 
z"/>
<path fill="#E6EFF4" opacity="1.000000" stroke="none" 
	d="
M436.415894,193.500336 
	C435.752441,194.654800 435.378296,195.729843 434.625610,196.203995 
	C431.932373,197.900604 428.879700,198.759689 426.854095,195.619659 
	C426.249542,194.682526 427.219391,191.766861 428.350647,190.864960 
	C431.055573,188.708359 435.154572,190.104034 436.415894,193.500336 
z"/>
</svg>